# xmcd CD database file
#
# Track frame offsets:
#	150
#	10711
#	23342
#	35137
#	48586
#	58267
#	71275
#	82213
#	94104
#	107402
#	120216
#	133828
#	147731
#	158747
#	170591
#	181959
#	192221
#	203957
#	215704
#	226740
#	236772
#	249542
#	260795
#	270173
#	281567
#	296011
#	306921
#	323214
#	339987
#
# Disc length: 4705 seconds
#
# Revision: 4
# Processed by: cddbd v1.5.2PL0 Copyright (c) Steve Scherf et al.
# Submitted via: CDex 1.51
#
DISCID=ad125f1d
DTITLE=Jerry Lee Lewis - Mercury Smashes CD 2
DYEAR=1900
DGENRE=Country
TTITLE0=Jealous Heart
TTITLE1=The Last Letter
TTITLE2=Meeting In The Air
TTITLE3=Where He Leads Me
TTITLE4=Living On The Halleluja Side
TTITLE5=A Picture From Life's Other Side
TTITLE6=The Hurtin' Part
TTITLE7=Touching Home
TTITLE8=Comin' Back For More
TTITLE9=When Baby Gets The Blues
TTITLE10=Help Me Make It Through The Night
TTITLE11=Mother, The Queen Of My Heart
TTITLE12=Time Changes Everything
TTITLE13=Hearts Were Made For Beating
TTITLE14=When He Walks On You (Like You Have Walked On Me)
TTITLE15=You Helped Me Up (When The World Let Me Down)
TTITLE16=Foolish Kind Of Man
TTITLE17=Another Hand Shakin' Goodbye
TTITLE18=Please Don't Talk About Me When I'm Gone
TTITLE19=The Goodbye Of The Year
TTITLE20=Someday (You'll Want Me To Want You)
TTITLE21=No Honky Tonks In Heaven
TTITLE22=Big Blon' Baby
TTITLE23=Lonesome Fiddle Man
TTITLE24=Things That Matter Most To Me
TTITLE25=I Don't Know Why, I Just Do
TTITLE26=Thirteen At The Table
TTITLE27=For The Good Times
TTITLE28=Would You Take Another Chance On Me
EXTD=
EXTT0=
EXTT1=
EXTT2=
EXTT3=
EXTT4=
EXTT5=
EXTT6=
EXTT7=
EXTT8=
EXTT9=
EXTT10=
EXTT11=
EXTT12=
EXTT13=
EXTT14=
EXTT15=
EXTT16=
EXTT17=
EXTT18=
EXTT19=
EXTT20=
EXTT21=
EXTT22=
EXTT23=
EXTT24=
EXTT25=
EXTT26=
EXTT27=
EXTT28=
PLAYORDER=
